{"title":"Dragon.Blade.2015.CAM.x264-CM8","uid":11725986,"size":1211210684,"categoryP":"video","categoryS":"movies","magnet":"?xt=urn:btih:bfff60dc492efdef1ef33a64ead96df6cb266c57&amp;dn=Dragon.Blade.2015.CAM.x264-CM8&amp;tr=udp%3A%2F%2Ftracker.openbittorrent.com%3A80&amp;tr=udp%3A%2F%2Fopen.demonii.com%3A1337&amp;tr=udp%3A%2F%2Ftracker.coppersurfer.tk%3A6969&amp;tr=udp%3A%2F%2Fexodus.desync.com%3A6969","seeders":59,"leechers":15,"uploader":"xxxlavalxxx","files":4,"time":1425051460,"description":"[img]http://extraimago.com/images/2015/02/27/dragon_poster_cn.jpg[/img]\n\n[url]http://www.imdb.com/title/tt3672840/[/url]\n\n\nLost Roman soldiers navigate their way through China.\nOne of the most expensive films ever produced in China, the historical action epic Dragon Blade takes place during the Han Dynasty. The story centers on the commander of the Protection Squad of the Western Regions (Jackie Chan), who joins forces with Roman general Lucius (John Cusack) to protect China's sovereignty as power-crazed Tiberius (Adrien Brody) seeks to defeat Lucius once and for all.\n\nDirector: Daniel Lee\nStars: John Cusack, Adrien Brody, Jackie Chan\nGenres: Action | Adventure | Drama\nCountry: China\nLanguage: Mandarin | English\n\n\nSource: Thnx Mate :wink:\n\nenjoy\n\nVideo: 720x320 @ Bitrate  \nAudio: English AAC 2 Channel\nSample: yes included\n\n &lt;a href=&quot;\nhttp://www.imdb.com/title/tt3672840/&quot; rel=&quot;nofollow&quot; target=&quot;_NEW&quot;&gt;\nhttp://www.imdb.com/title/tt3672840/&lt;/a&gt;\n\n\nGeneral\nComplete name                            : Dragon.Blade.2015.mp4\nFormat                                   : MPEG-4\nFormat profile                           : Base Media\nCodec ID                                 : isom\nFile size                                : 1.09 GiB\nDuration                                 : 2h 4mn\nOverall bit rate mode                    : Variable\nOverall bit rate                         : 1 254 Kbps\nEncoded date                             : UTC 2015-02-27 12:02:35\nTagged date                              : UTC 2015-02-27 12:02:35\n\nVideo\nID                                       : 1\nFormat                                   : AVC\nFormat/Info                              : Advanced Video Codec\nFormat profile                           : &lt;a class=&quot;__cf_email__&quot; href=&quot;/cdn-cgi/l/email-protection&quot; data-cfemail=&quot;eea6878986aea2dac0df&quot;&gt;[email&amp;#160;protected]&lt;/a&gt;&lt;script cf-hash='f9e31' type=&quot;text/javascript&quot;&gt;\n/* &lt;![CDATA[ */!function(){try{var t=&quot;currentScript&quot;in document?document.currentScript:function(){for(var t=document.getElementsByTagName(&quot;script&quot;),e=t.length;e--;)if(t[e].getAttribute(&quot;cf-hash&quot;))return t[e]}();if(t&amp;&amp;t.previousSibling){var e,r,n,i,c=t.previousSibling,a=c.getAttribute(&quot;data-cfemail&quot;);if(a){for(e=&quot;&quot;,r=parseInt(a.substr(0,2),16),n=2;a.length-n;n+=2)i=parseInt(a.substr(n,2),16)^r,e+=String.fromCharCode(i);e=document.createTextNode(e),c.parentNode.replaceChild(e,c)}}}catch(u){}}();/* ]]&gt; */&lt;/script&gt;\nFormat settings, CABAC                   : Yes\nFormat settings, ReFrames                : 3 frames\nCodec ID                                 : avc1\nCodec ID/Info                            : Advanced Video Coding\nDuration                                 : 2h 4mn\nBit rate mode                            : Variable\nBit rate                                 : 1 161 Kbps\nMaximum bit rate                         : 40.0 Mbps\nWidth                                    : 720 pixels\nHeight                                   : 320 pixels\nDisplay aspect ratio                     : 2.25:1\nFrame rate mode                          : Constant\nFrame rate                               : 24.000 fps\nColor space                              : YUV\nChroma subsampling                       : 4:2:0\nBit depth                                : 8 bits\nScan type                                : Progressive\nBits/(Pixel*Frame)                       : 0.210\nStream size                              : 1.01 GiB (93%)\nWriting library                          : x264 core 144 r2525 40bb568\n\nAudio\nID                                       : 2\nFormat                                   : AAC\nFormat/Info                              : Advanced Audio Codec\nFormat profile                           : LC\nCodec ID                                 : 40\nDuration                                 : 2h 4mn\nBit rate mode                            : Variable\nBit rate                                 : 89.6 Kbps\nMaximum bit rate                         : 98.0 Kbps\nChannel(s)                               : 2 channels\nChannel positions                        : Front: L R\nSampling rate                            : 44.1 KHz\nCompression mode                         : Lossy\nStream size                              : 79.9 MiB (7%)\nLanguage                                 : English\nEncoded date                             : UTC 2015-02-27 03:59:35\nTagged date                              : UTC 2015-02-27 12:03:00\n\n &lt;a href=&quot;\nhttp://extraimago.com/images/2015/02/27/02BDIti.png&quot; rel=&quot;nofollow&quot; target=&quot;_NEW&quot;&gt;\nhttp://extraimago.com/images/2015/02/27/02BDIti.png&lt;/a&gt; &lt;a href=&quot;\nhttp://extraimago.com/images/2015/02/27/Bu3zSCT.png&quot; rel=&quot;nofollow&quot; target=&quot;_NEW&quot;&gt;\nhttp://extraimago.com/images/2015/02/27/Bu3zSCT.png&lt;/a&gt; &lt;a href=&quot;\nhttp://extraimago.com/images/2015/02/27/fmiX4rP.png&quot; rel=&quot;nofollow&quot; target=&quot;_NEW&quot;&gt;\nhttp://extraimago.com/images/2015/02/27/fmiX4rP.png&lt;/a&gt; &lt;a href=&quot;\nhttp://extraimago.com/images/2015/02/27/hNYIkJv.png&quot; rel=&quot;nofollow&quot; target=&quot;_NEW&quot;&gt;\nhttp://extraimago.com/images/2015/02/27/hNYIkJv.png&lt;/a&gt; &lt;a href=&quot;\nhttp://extraimago.com/images/2015/02/27/mjwjr9G.png&quot; rel=&quot;nofollow&quot; target=&quot;_NEW&quot;&gt;\nhttp://extraimago.com/images/2015/02/27/mjwjr9G.png&lt;/a&gt; &lt;a href=&quot;\nhttp://extraimago.com/images/2015/02/27/pVkfCIF.png&quot; rel=&quot;nofollow&quot; target=&quot;_NEW&quot;&gt;\nhttp://extraimago.com/images/2015/02/27/pVkfCIF.png&lt;/a&gt; &lt;a href=&quot;\nhttp://extraimago.com/images/2015/02/27/xMDPKUN.png&quot; rel=&quot;nofollow&quot; target=&quot;_NEW&quot;&gt;\nhttp://extraimago.com/images/2015/02/27/xMDPKUN.png&lt;/a&gt;","torrent":{"xt":"urn:btih:bfff60dc492efdef1ef33a64ead96df6cb266c57","amp;dn":"Dragon.Blade.2015.CAM.x264-CM8","amp;tr":["udp%3A%2F%2Ftracker.openbittorrent.com%3A80","udp%3A%2F%2Fopen.demonii.com%3A1337","udp%3A%2F%2Ftracker.coppersurfer.tk%3A6969","udp%3A%2F%2Fexodus.desync.com%3A6969"],"infoHash":"bfff60dc492efdef1ef33a64ead96df6cb266c57","infoHashBuffer":{"type":"Buffer","data":[191,255,96,220,73,46,253,239,30,243,58,100,234,217,109,246,203,38,108,87]},"announce":[],"urlList":[]}}